<?xml version="1.0" standalone="no"?>
<!DOCTYPE svg PUBLIC "-//W3C//DTD SVG 20010904//EN"
 "http://www.w3.org/TR/2001/REC-SVG-20010904/DTD/svg10.dtd">
<svg version="1.0" xmlns="http://www.w3.org/2000/svg"
 width="512.000000pt" height="512.000000pt" viewBox="0 0 512.000000 512.000000"
 preserveAspectRatio="xMidYMid meet">
<metadata>
Created by potrace 1.11, written by Peter Selinger 2001-2013
</metadata>
<g transform="translate(0.000000,512.000000) scale(0.100000,-0.100000)"
fill="#000000" stroke="none">
<path d="M2185 5114 c-318 -48 -552 -165 -786 -391 l-85 -83 -35 36 c-57 60
-136 93 -312 130 -241 50 -337 87 -357 137 -8 20 -9 20 -9 -9 -1 -52 27 -128
64 -171 43 -51 89 -80 163 -104 l57 -19 -112 3 c-98 2 -110 0 -103 -14 11 -20
91 -94 118 -108 36 -19 115 -30 159 -22 l42 8 -31 -45 c-30 -43 -30 -46 -13
-59 28 -20 87 -16 137 11 l44 23 13 -28 c24 -54 -40 -136 -136 -174 -59 -23
-184 -158 -277 -298 -41 -61 -73 -113 -71 -115 2 -2 52 23 112 56 59 33 109
59 110 58 1 -1 -9 -36 -23 -77 -53 -155 -40 -334 35 -495 39 -83 119 -209 127
-201 3 3 -1 41 -9 86 -8 44 -11 81 -7 81 18 0 103 -71 184 -153 l89 -91 -6 67
-6 68 67 -57 c79 -68 187 -139 260 -173 29 -14 51 -29 49 -35 -6 -18 -183 -92
-308 -130 -64 -19 -188 -49 -275 -66 -445 -87 -634 -150 -750 -252 -127 -112
-114 -240 35 -325 57 -33 81 -53 81 -68 0 -6 -24 -24 -52 -40 -137 -72 -157
-147 -76 -271 61 -92 160 -179 261 -229 117 -58 215 -82 380 -95 195 -15 227
-20 248 -41 15 -15 18 -28 13 -58 -4 -25 -1 -48 9 -68 20 -39 85 -97 139 -124
53 -27 54 -29 63 -98 12 -100 54 -312 92 -465 l37 -149 -30 -20 c-87 -61 -156
-164 -176 -261 -18 -93 23 -148 135 -181 48 -14 96 -16 295 -13 231 3 238 4
286 28 71 37 91 68 90 140 -2 98 -74 214 -178 287 l-29 20 35 139 c20 76 46
195 59 264 12 69 27 130 33 136 15 16 173 34 287 33 88 0 263 -19 273 -30 2
-2 14 -58 26 -124 12 -66 39 -187 60 -270 33 -135 36 -151 21 -159 -46 -27
-134 -125 -162 -181 -59 -120 -39 -204 58 -252 l58 -28 260 0 c257 0 261 0
310 25 28 14 60 40 73 60 61 90 -20 270 -166 372 l-23 16 25 93 c35 131 81
358 105 524 12 77 23 155 26 172 l6 33 38 -20 c48 -24 91 -74 91 -105 0 -29
14 -39 29 -22 15 18 48 162 66 288 9 57 18 181 22 274 l6 171 91 -45 c50 -24
93 -45 94 -47 2 -1 -26 -80 -62 -175 -36 -94 -66 -184 -66 -199 0 -57 77 -87
118 -46 7 7 105 255 219 552 113 296 207 541 209 543 2 2 113 -38 246 -88 227
-87 244 -92 279 -82 20 6 43 21 51 34 29 46 190 481 190 515 0 65 -16 73 -587
291 -291 111 -536 201 -544 201 -9 0 -11 6 -6 18 54 129 60 155 60 297 0 141
-4 162 -50 269 -6 13 24 1 111 -45 l118 -63 -24 42 c-48 80 -153 222 -209 282
-37 39 -83 75 -136 103 -68 37 -84 51 -107 92 -24 45 -25 51 -12 76 l14 28 42
-24 c46 -26 90 -31 133 -15 l26 10 -30 44 -31 44 68 -1 c84 -1 139 23 205 88
26 26 47 50 47 53 0 4 -48 6 -107 5 l-108 -3 51 18 c60 21 132 62 156 88 30
34 61 105 66 152 5 44 4 46 -12 29 -43 -43 -140 -77 -331 -117 -205 -43 -284
-75 -340 -141 l-26 -32 -87 86 c-99 97 -123 118 -207 174 -131 88 -308 163
-470 199 -68 15 -338 27 -400 18z m1480 -1816 c-4 -18 -45 -133 -91 -256 -46
-123 -84 -236 -84 -252 0 -59 37 -81 288 -176 133 -50 231 -92 229 -98 -30
-88 -203 -536 -207 -536 -3 0 -29 35 -58 79 -29 43 -108 148 -175 232 -87 109
-131 174 -151 222 -73 175 -204 320 -359 401 l-67 35 86 42 c98 48 217 130
285 195 l46 45 -8 -53 c-14 -99 -15 -99 89 3 97 95 159 149 175 149 5 0 5 -15
2 -32z"/>
</g>
</svg>
